<svg xmlns="http://www.w3.org/2000/svg" viewBox="0 0 5307 1605">
  <g fill="#144A54">
    <path d="M573 1202V291H711Q947 291 1071.5 408.0Q1196 525 1196 748Q1196 970 1072.0 1086.0Q948 1202 711 1202ZM188 1493H594Q934 1493 1100.5 1444.5Q1267 1396 1386 1280Q1491 1179 1542.0 1047.0Q1593 915 1593 748Q1593 579 1542.0 446.5Q1491 314 1386 213Q1266 97 1098.0 48.5Q930 0 594 0H188Z" transform="translate(86,1519) scale(1,-1)"/>
    <path d="M188 1493H678L1018 694L1360 1493H1849V0H1485V1092L1141 287H897L553 1092V0H188Z" transform="translate(1786,1519) scale(1,-1)"/>
    <path d="M10 1493H1386V1202H891V0H506V1202H10Z" transform="translate(3824,1519) scale(1,-1)"/>
  </g>
</svg>
